<?xml version="1.0" encoding="UTF-8"?>
<svg xmlns="http://www.w3.org/2000/svg" width="48" height="47" viewBox="0 0 48 47" fill="none">
  <path d="M14.249 26.6048V20.5997H19.5939C19.5939 19.6416 19.5545 18.7733 19.6028 17.91C19.6858 16.428 19.6329 14.903 19.9759 13.4774C20.8253 9.94256 23.5377 8.10379 27.1783 8.33949C28.5382 8.42753 29.9024 8.44918 31.262 8.54005C31.4746 8.55425 31.848 8.77292 31.8519 8.90532C31.8942 10.4126 31.8786 11.9212 31.8786 13.5218C30.9702 13.5218 30.1459 13.4501 29.3408 13.5431C28.617 13.6269 27.8709 13.7972 27.2138 14.1008C26.4449 14.4557 26.041 15.1845 26.0243 16.0432C25.9959 17.5064 26.0165 18.9707 26.0165 20.5468H31.6677C31.4437 22.0075 31.2471 23.3429 31.033 24.6758C30.7274 26.5789 30.722 26.5778 28.7668 26.5778C27.8755 26.5778 26.9841 26.5778 26.0204 26.5778V41.2174H19.6322V26.6048H14.2494H14.249Z" fill="#5C068C"></path>
</svg>
