<?xml version="1.0" encoding="UTF-8"?>
<svg xmlns="http://www.w3.org/2000/svg" width="48" height="47" viewBox="0 0 48 47" fill="none">
  <path d="M24.1387 38.5383C22.0039 38.5383 19.8694 38.5415 17.7346 38.5376C12.6907 38.5288 9.24277 35.0865 9.24313 30.0646C9.24313 25.643 9.2378 21.2218 9.2449 16.8002C9.25236 12.298 12.8245 8.72013 17.3303 8.70948C21.8825 8.69883 26.4351 8.70096 30.9874 8.70841C35.5137 8.71587 39.0933 12.2071 39.1416 16.7437C39.1902 21.319 39.1934 25.8954 39.1394 30.4704C39.0862 34.9949 35.6117 38.4443 31.0825 38.5291C28.7684 38.5724 26.4532 38.5366 24.1384 38.538L24.1387 38.5383ZM11.8561 23.5309C11.8561 25.7165 11.8476 27.9021 11.8579 30.0877C11.8746 33.5583 14.2086 35.8948 17.6764 35.9023C22.0241 35.9115 26.3719 35.9108 30.7193 35.9023C34.1531 35.8955 36.497 33.5601 36.5027 30.1434C36.5098 25.8237 36.508 21.504 36.5037 17.1842C36.5005 13.6582 34.1854 11.3331 30.6594 11.326C26.3375 11.3175 22.0153 11.3164 17.6934 11.3267C14.2182 11.3349 11.8767 13.6668 11.8583 17.1289C11.8469 19.263 11.8561 21.3971 11.8558 23.5313L11.8561 23.5309Z" fill="#5C068C"></path>
  <path d="M24.198 31.7562C19.6923 31.7562 16.0654 28.1184 16.0733 23.6066C16.0811 19.1211 19.7594 15.452 24.23 15.4698C28.6803 15.4875 32.4211 19.228 32.4001 23.6393C32.3789 28.0999 28.6839 31.7566 24.198 31.7566V31.7562ZM29.5305 23.6375C29.5415 20.7416 27.1568 18.3373 24.2388 18.3022C21.312 18.2667 18.8513 20.6926 18.8474 23.6166C18.8435 26.5689 21.2386 28.9835 24.1795 28.992C27.1149 29.0009 29.5199 26.5945 29.5309 23.6375H29.5305Z" fill="#5C068C"></path>
  <path d="M32.2071 17.371C31.2281 17.3774 30.4425 16.5865 30.4603 15.6131C30.4776 14.6628 31.2306 13.9241 32.189 13.917C33.1443 13.9099 33.9692 14.7321 33.9511 15.6731C33.933 16.5932 33.1403 17.3649 32.2075 17.371H32.2071Z" fill="#5C068C"></path>
</svg>
