<?xml version="1.0" encoding="UTF-8"?>
<svg xmlns="http://www.w3.org/2000/svg" width="48" height="48" viewBox="0 0 48 48" fill="none">
  <path d="M20.0605 37.5538V19.7283H25.3056V21.9975C26.4227 20.7567 27.5365 19.8793 28.9937 19.6446C30.8783 19.3417 32.7755 19.2279 34.5403 20.1647C36.4925 21.2013 37.7094 22.8488 37.7709 25.0532C37.8836 29.091 37.8145 33.1343 37.8174 37.1754C37.8174 37.272 37.7745 37.3689 37.7319 37.5492C36.1259 37.5492 34.526 37.5549 32.9261 37.546C32.3684 37.5427 32.529 37.0967 32.528 36.7988C32.5179 34.1047 32.5222 31.4106 32.5222 28.7162C32.5222 28.483 32.5265 28.2498 32.5197 28.0169C32.4579 25.8072 31.0464 24.3088 29.0473 24.3278C26.9485 24.3478 25.3375 25.9613 25.3239 28.1024C25.306 30.9521 25.297 33.8017 25.3335 36.651C25.3425 37.3478 25.1758 37.6007 24.4382 37.5707C22.9968 37.512 21.551 37.5535 20.0605 37.5535V37.5538Z" fill="#5C068C"></path>
  <path d="M11.5798 19.7201H16.8732V37.5452C15.2075 37.5452 13.5589 37.557 11.9111 37.5198C11.7966 37.5173 11.5999 37.155 11.5949 36.9565C11.5655 35.7135 11.5795 34.4695 11.5795 33.2259C11.5795 29.0546 11.5795 24.8832 11.5795 20.7119V19.7197L11.5798 19.7201Z" fill="#5C068C"></path>
  <path d="M17.4426 13.912C17.4283 15.6862 15.9943 17.1094 14.2166 17.113C12.4153 17.1165 11.0118 15.6529 11.0415 13.8012C11.0701 12.0038 12.4922 10.6246 14.2882 10.6518C16.0623 10.6786 17.4565 12.1201 17.4422 13.912H17.4426Z" fill="#5C068C"></path>
</svg>
