<?xml version="1.0" encoding="UTF-8"?>
<svg xmlns="http://www.w3.org/2000/svg" width="56" height="45" viewBox="0 0 56 45" fill="none">
  <g id="Group">
    <g id="Group_2">
      <path id="Vector" d="M51.9585 32.3579L49.3505 36.8104L46.7762 32.3579H43.4951L47.9708 39.6438V44.9226H50.7639V39.6438L55.2059 32.3579H51.9585Z" fill="#5C068C"></path>
      <path id="Vector_2" d="M7.73988 38.2271C8.31196 37.6368 8.598 36.9116 8.598 36.0514C8.598 33.977 6.94907 32.3579 4.82902 32.3579H0V44.9226H5.48522C7.75671 44.9226 9.45612 43.3036 9.45612 41.1617C9.45612 39.8968 8.85039 38.8511 7.73988 38.2271ZM4.57663 37.3838H2.79309V34.9383H4.57663C5.31696 34.9383 5.88904 35.4611 5.88904 36.1695C5.87222 36.8778 5.33379 37.3838 4.57663 37.3838ZM2.79309 39.8124H5.33379C6.14143 39.8124 6.71351 40.3353 6.71351 41.0942C6.71351 41.8531 6.14143 42.3591 5.33379 42.3591H2.79309V39.8124Z" fill="#5C068C"></path>
      <path id="Vector_3" d="M37.875 32.3578H33.9377V44.9226H37.875C41.4925 44.9226 44.3193 42.1567 44.3193 38.6318C44.3193 35.1069 41.4925 32.3578 37.875 32.3578ZM41.4925 38.6487C41.4925 40.7906 39.9782 42.3422 37.875 42.3422H36.7308V34.9551H37.875C39.9782 34.9383 41.4925 36.5067 41.4925 38.6487Z" fill="#5C068C"></path>
    </g>
    <g id="Group_3">
      <path id="Vector_4" d="M26.9212 0.246582L21.5537 16.7916L26.9212 20.7043L32.2886 16.7916L26.9212 0.246582Z" fill="#5C068C"></path>
      <path id="Vector_5" d="M23.607 10.4849H12.8721L21.5542 16.7925L23.607 10.4849Z" fill="#126BFA"></path>
      <path id="Vector_6" d="M30.2363 10.4849H40.9544L32.2891 16.7925L30.2363 10.4849Z" fill="#E4002B"></path>
      <path id="Vector_7" d="M32.2893 16.7916L26.9219 20.7043L35.604 27.0289L32.2893 16.7916Z" fill="#126BFA"></path>
      <path id="Vector_8" d="M26.9224 20.7043L18.2402 27.0288L21.5549 16.7915L26.9224 20.7043Z" fill="#E4002B"></path>
    </g>
    <path id="Vector_9" d="M26.9213 32.0376L20.6621 44.9228H23.6235L24.6498 42.7471H29.1928L30.2192 44.9228H33.1805L26.9213 32.0376ZM25.7603 40.386L26.9213 37.9236L28.0823 40.386H25.7603Z" fill="#5C068C"></path>
    <path id="Vector_10" d="M19.4501 36.1189C19.4501 34.0107 17.7675 32.3579 15.6138 32.3579H10.8857V44.9226H13.6788V39.8462H14.0995L17.2291 44.9226H20.4765L17.1113 39.5932C18.5078 39.0366 19.4501 37.6537 19.4501 36.1189ZM15.3446 37.4344H13.662V34.9383H15.3446C16.1859 34.9383 16.7411 35.4443 16.7411 36.2032C16.7411 36.9453 16.1859 37.4344 15.3446 37.4344Z" fill="#5C068C"></path>
  </g>
</svg>
