<?xml version="1.0" encoding="UTF-8"?>
<svg xmlns="http://www.w3.org/2000/svg" width="113" height="91" viewBox="0 0 113 91" fill="none">
  <g clip-path="url(#clip0_1976_5564)">
    <path d="M105.431 65.2471L100.137 74.2617L94.9118 65.2471H88.252L97.3367 79.9982V90.686H103.006V79.9982L112.023 65.2471H105.431Z" fill="white"></path>
    <path d="M15.6773 77.1299C16.8385 75.9348 17.4191 74.4665 17.4191 72.7251C17.4191 68.5251 14.0721 65.2471 9.76879 65.2471H-0.0332031V90.686H11.1008C15.7115 90.686 19.1609 87.4079 19.1609 83.0714C19.1609 80.5104 17.9314 78.3934 15.6773 77.1299ZM9.25649 75.4226H5.63624V70.4714H9.25649C10.7592 70.4714 11.9204 71.53 11.9204 72.9641C11.8863 74.3982 10.7934 75.4226 9.25649 75.4226ZM5.63624 80.3397H10.7934C12.4327 80.3397 13.594 81.3982 13.594 82.9348C13.594 84.4714 12.4327 85.4958 10.7934 85.4958H5.63624V80.3397Z" fill="white"></path>
    <path d="M76.8473 65.2471H68.8555V90.686H76.8473C84.1903 90.686 89.928 85.086 89.928 77.9495C89.928 70.8129 84.1903 65.2471 76.8473 65.2471ZM84.1903 77.9836C84.1903 82.3202 81.1165 85.4616 76.8473 85.4616H74.5249V70.5056H76.8473C81.1165 70.4714 84.1903 73.647 84.1903 77.9836Z" fill="white"></path>
    <path d="M54.6136 0.231445L43.7188 33.7289L54.6136 41.6508L65.5085 33.7289L54.6136 0.231445Z" fill="white"></path>
    <path d="M47.8855 20.958H26.0957L43.7188 33.7287L47.8855 20.958Z" fill="#126BFA"></path>
    <path d="M61.3418 20.958H83.0974L65.5085 33.7287L61.3418 20.958Z" fill="#E4002B"></path>
    <path d="M65.5101 33.7314L54.6152 41.6534L72.2383 54.4582L65.5101 33.7314Z" fill="#126BFA"></path>
    <path d="M54.6153 41.6534L36.9922 54.4582L43.7204 33.7314L54.6153 41.6534Z" fill="#E4002B"></path>
    <path d="M54.6113 64.5986L41.9062 90.6863H47.9172L50.0006 86.2815H59.222L61.3053 90.6863H67.3163L54.6113 64.5986ZM52.2547 81.501L54.6113 76.5156L56.9678 81.501H52.2547Z" fill="white"></path>
    <path d="M39.4465 72.8617C39.4465 68.5934 36.0312 65.2471 31.6596 65.2471H22.0625V90.686H27.7319V80.408H28.5858L34.9383 90.686H41.5299L34.6992 79.8958C37.5339 78.769 39.4465 75.969 39.4465 72.8617ZM31.1131 75.5251H27.6978V70.4714H31.1131C32.8208 70.4714 33.9478 71.4958 33.9478 73.0324C33.9478 74.5348 32.8208 75.5251 31.1131 75.5251Z" fill="white"></path>
  </g>
  <defs>
    <clipPath id="clip0_1976_5564">
      <rect width="112" height="90" fill="white" transform="translate(0.222656 0.231445)"></rect>
    </clipPath>
  </defs>
</svg>
