<?xml version="1.0" encoding="UTF-8"?>
<svg xmlns="http://www.w3.org/2000/svg" width="48" height="48" viewBox="0 0 48 48" fill="none">
  <path d="M30.5075 19.914C30.5075 20.3649 30.5075 20.6123 30.5075 20.86C30.5065 23.9958 30.5356 27.132 30.4965 30.2675C30.4454 34.355 28.5925 37.4056 24.8742 39.0981C21.1938 40.7732 17.6331 40.2539 14.5694 37.6189C11.6146 35.0777 10.6374 31.7392 11.6604 27.9939C12.7011 24.1826 15.3187 21.8848 19.1957 21.1135C20.1502 20.9236 21.1569 20.9942 22.181 20.9427V26.2755C21.9712 26.257 21.803 26.2517 21.6375 26.2265C19.1087 25.841 16.8245 27.537 16.5501 30.0059C16.2746 32.4825 18.1017 34.6759 20.563 34.8232C23.1401 34.9776 25.2487 33.0813 25.2657 30.4978C25.298 25.6656 25.2756 20.8331 25.2756 16.0008C25.2756 13.9999 25.2756 11.9993 25.2756 9.94434H30.4678C30.5139 11.9205 31.2072 13.6233 32.5433 15.0431C33.8808 16.4644 35.5059 17.2269 37.5644 17.0757V22.2082C34.9699 22.4294 32.7119 21.6314 30.5075 19.914Z" fill="#5C068C"></path>
</svg>
