<?xml version="1.0" encoding="UTF-8"?>
<svg xmlns="http://www.w3.org/2000/svg" width="47" height="47" viewBox="0 0 47 47" fill="none">
  <path d="M23.0982 33.9334C21.7401 33.8485 20.3816 33.7665 19.0242 33.6749C18.8716 33.6647 18.7189 33.6537 18.5663 33.6448C16.8723 33.5454 15.1787 33.4336 13.489 33.2742C10.672 33.0087 9.60596 31.8415 9.31204 29.0446C8.93222 25.4296 8.93719 21.8085 9.29855 18.1934C9.5907 15.2691 10.7586 14.0299 13.7059 13.83C17.4474 13.5762 21.2005 13.4111 24.9498 13.3884C27.6689 13.3717 30.3902 13.6461 33.1104 13.797C33.3656 13.8112 33.6205 13.8609 33.8725 13.9092C36.1954 14.3561 37.15 15.2595 37.4911 17.5793C37.7147 19.1003 37.8766 20.6487 37.8599 22.1826C37.833 24.6444 37.751 27.1171 37.4766 29.5608C37.2089 31.9444 36.1163 32.9788 33.7287 33.238C31.6013 33.4691 29.4647 33.615 27.3264 33.6927C26.1124 33.7367 23.1859 33.9391 23.0979 33.9337L23.0982 33.9334ZM28.0633 23.5674C25.5078 22.1013 23.1071 20.7244 20.6205 19.2981V27.8924C23.1227 26.4384 25.5266 25.0416 28.0633 23.5677V23.5674Z" fill="#5C068C"></path>
</svg>
